# xmcd
#
# Track frame offsets:
#   150
#   15255
#   29900
#   48110
#   64020
#   77293
#   92230
#   102647
#   117365
#   134775
#   152421
#   170385
#   182477
#   192659
#   207265
#   221904
#   234722
#
# Disc length: 3339 seconds
#
# Revision: 2
# Processed by: cddbd v1.5.1PL0 Copyright (c) Steve Scherf et al.
# Submitted via: Media_Universe 3.0
#
DISCID=ef0d0911
DTITLE=Glykeria - The Voice of Greece - The Best [CD 1)
DYEAR=2001
DGENRE=Other
TTITLE0=
TTITLE1=
TTITLE2=
TTITLE3=
TTITLE4=Ó
TTITLE5=
TTITLE6=
TTITLE7=
TTITLE8=
TTITLE9=
TTITLE10=
TTITLE11=
TTITLE12=
TTITLE13=
TTITLE14=
TTITLE15=
TTITLE16=
EXTD=
EXTT0=
EXTT1=
EXTT2=
EXTT3=
EXTT4=
EXTT5=
EXTT6=
EXTT7=
EXTT8=
EXTT9=
EXTT10=
EXTT11=
EXTT12=
EXTT13=
EXTT14=
EXTT15=
EXTT16=
PLAYORDER=
